<svg width="624" height="438" viewBox="0 0 624 438" fill="none" xmlns="http://www.w3.org/2000/svg">
<path fill-rule="evenodd" clip-rule="evenodd" d="M249.032 433.6C327.551 428.923 404.588 410.167 468.593 364.479C532.973 318.525 581.381 253.537 606.373 178.526C631.497 103.121 627.671 22.9602 608.044 -54.056C587.253 -135.637 559.44 -221.194 491.736 -271.296C423.775 -321.589 333.513 -323.573 249.032 -319.733C167.905 -316.045 89.2947 -295.15 21.8576 -249.936C-47.6014 -203.367 -123.924 -145.04 -135.076 -62.2037C-145.98 18.7966 -57.3218 76.037 -32.5077 153.915C-7.44388 232.577 -48.9983 333.619 9.58974 391.821C68.4894 450.333 166.125 438.539 249.032 433.6Z" fill="url(#paint0_linear)"/>
<defs>
<linearGradient id="paint0_linear" x1="-136" y1="438" x2="663.653" y2="387.289" gradientUnits="userSpaceOnUse">
<stop stop-color="#F2B430"/>
<stop offset="1" stop-color="#F46E26"/>
</linearGradient>
</defs>
</svg>
