<svg width="20" height="20" viewBox="0 0 20 20" fill="none" xmlns="http://www.w3.org/2000/svg">
<path d="M18.4701 1.77605e-05H1.53006C1.33964 -0.00262686 1.15056 0.0322653 0.973624 0.102702C0.796689 0.173138 0.635362 0.277738 0.498856 0.41053C0.36235 0.543321 0.25334 0.701702 0.178051 0.876627C0.102761 1.05155 0.062667 1.2396 0.0600586 1.43002V18.57C0.062667 18.7604 0.102761 18.9485 0.178051 19.1234C0.25334 19.2983 0.36235 19.4567 0.498856 19.5895C0.635362 19.7223 0.796689 19.8269 0.973624 19.8973C1.15056 19.9678 1.33964 20.0027 1.53006 20H18.4701C18.6605 20.0027 18.8496 19.9678 19.0265 19.8973C19.2034 19.8269 19.3648 19.7223 19.5013 19.5895C19.6378 19.4567 19.7468 19.2983 19.8221 19.1234C19.8974 18.9485 19.9375 18.7604 19.9401 18.57V1.43002C19.9375 1.2396 19.8974 1.05155 19.8221 0.876627C19.7468 0.701702 19.6378 0.543321 19.5013 0.41053C19.3648 0.277738 19.2034 0.173138 19.0265 0.102702C18.8496 0.0322653 18.6605 -0.00262686 18.4701 1.77605e-05ZM6.09006 16.74H3.09006V7.74002H6.09006V16.74ZM4.59006 6.48002C4.17632 6.48002 3.77953 6.31566 3.48697 6.0231C3.19442 5.73055 3.03006 5.33376 3.03006 4.92002C3.03006 4.50628 3.19442 4.10949 3.48697 3.81693C3.77953 3.52437 4.17632 3.36002 4.59006 3.36002C4.80975 3.3351 5.03224 3.35687 5.24293 3.4239C5.45363 3.49093 5.6478 3.60171 5.81272 3.74898C5.97763 3.89625 6.10958 4.0767 6.19993 4.2785C6.29028 4.4803 6.33698 4.69891 6.33698 4.92002C6.33698 5.14112 6.29028 5.35973 6.19993 5.56154C6.10958 5.76334 5.97763 5.94378 5.81272 6.09106C5.6478 6.23833 5.45363 6.3491 5.24293 6.41613C5.03224 6.48316 4.80975 6.50493 4.59006 6.48002ZM16.9101 16.74H13.9101V11.91C13.9101 10.7 13.4801 9.91002 12.3901 9.91002C12.0527 9.91249 11.7242 10.0183 11.4489 10.2132C11.1735 10.4081 10.9645 10.6827 10.8501 11C10.7718 11.2351 10.7379 11.4826 10.7501 11.73V16.73H7.75006C7.75006 16.73 7.75006 8.55002 7.75006 7.73002H10.7501V9.00002C11.0226 8.52712 11.419 8.13754 11.8965 7.87322C12.374 7.6089 12.9146 7.47987 13.4601 7.50002C15.4601 7.50002 16.9101 8.79002 16.9101 11.56V16.74Z" fill="#757575"/>
</svg>
