<svg width="20" height="20" viewBox="0 0 20 20" fill="none" xmlns="http://www.w3.org/2000/svg">
<path d="M19.41 6.64C19.41 6.64 19.41 6.64 19.41 6.59C18.7053 4.66623 17.4269 3.00529 15.7474 1.83187C14.068 0.658447 12.0687 0.0291748 10.02 0.0291748C7.9712 0.0291748 5.97189 0.658447 4.29246 1.83187C2.61304 3.00529 1.33455 4.66623 0.629951 6.59C0.629951 6.59 0.629951 6.59 0.629951 6.64C-0.156924 8.8109 -0.156924 11.1891 0.629951 13.36C0.629951 13.36 0.629951 13.36 0.629951 13.41C1.33455 15.3338 2.61304 16.9947 4.29246 18.1681C5.97189 19.3416 7.9712 19.9708 10.02 19.9708C12.0687 19.9708 14.068 19.3416 15.7474 18.1681C17.4269 16.9947 18.7053 15.3338 19.41 13.41C19.41 13.41 19.41 13.41 19.41 13.36C20.1968 11.1891 20.1968 8.8109 19.41 6.64ZM2.25995 12C1.91318 10.6892 1.91318 9.31079 2.25995 8H4.11995C3.95998 9.32854 3.95998 10.6715 4.11995 12H2.25995ZM3.07995 14H4.47995C4.71467 14.8918 5.05016 15.7541 5.47995 16.57C4.49925 15.9019 3.67945 15.0241 3.07995 14ZM4.47995 6H3.07995C3.67082 4.97909 4.48014 4.10147 5.44995 3.43C5.03051 4.24725 4.70509 5.10942 4.47995 6ZM8.99995 17.7C7.77172 16.7987 6.9091 15.4852 6.56995 14H8.99995V17.7ZM8.99995 12H6.13995C5.95334 10.6732 5.95334 9.32681 6.13995 8H8.99995V12ZM8.99995 6H6.56995C6.9091 4.51477 7.77172 3.20132 8.99995 2.3V6ZM16.92 6H15.52C15.2852 5.10816 14.9497 4.24594 14.52 3.43C15.5007 4.09807 16.3205 4.97594 16.92 6ZM11 2.3C12.2282 3.20132 13.0908 4.51477 13.43 6H11V2.3ZM11 17.7V14H13.43C13.0908 15.4852 12.2282 16.7987 11 17.7ZM13.86 12H11V8H13.86C14.0466 9.32681 14.0466 10.6732 13.86 12ZM14.55 16.57C14.9797 15.7541 15.3152 14.8918 15.55 14H16.95C16.3505 15.0241 15.5307 15.9019 14.55 16.57ZM17.74 12H15.88C15.9613 11.3365 16.0014 10.6685 16 10C16.0011 9.33151 15.961 8.66357 15.88 8H17.74C18.0867 9.31079 18.0867 10.6892 17.74 12Z" fill="#757575"/>
</svg>
